<svg xmlns="http://www.w3.org/2000/svg" width="700" height="700" viewBox="490 148 700 700"><path fill="none" font-family="none" font-weight="none" font-size="none" d="M490 148h700v700H490z"/><g fill-rule="none" stroke-width="none" stroke-linecap="none" stroke-linejoin="none" stroke-miterlimit="10" font-family="none" font-weight="none" font-size="none"><path d="M714.982 324.793c-12.952 4.017-32.319 16.087-46.634 29.064-15.559 14.104-55.074 55.15-58.102 60.351-.317.545 9.999-9.555 22.923-22.446 23.816-23.751 31.536-30.724 46.021-41.564 17.196-12.87 30.726-19.496 42.01-20.574 16.015-1.531 25.2 13.05 29.904 47.467 1.585 11.6 2.304 19.643 4.505 50.41 4.347 60.75 10.869 86.722 25.84 102.892 20.7 22.358 52.404 20.11 113.554-8.056 2.796-1.287 5.197-2.341 5.337-2.341s3.825-1.649 8.188-3.664 8.658-3.985 9.542-4.378 5.952-2.678 11.26-5.076c47.514-21.47 80.524-29.686 109.178-27.176 21.82 1.91 39.693 8.972 73.994 29.23 5.192 3.066 9.872 5.43 10.4 5.255.528-.176-2.091-2.436-5.82-5.023a5000 5000 0 0 1-13.618-9.487c-11.029-7.717-14.937-10.134-24.564-15.19-19.623-10.307-33.013-13.72-53.85-13.726-19.372-.006-42.57 5.413-72.394 16.91-9.808 3.78-27.72 11.65-57.106 25.088-16.818 7.69-37.275 15.834-47.052 18.73-15.655 4.638-17.571 4.95-30.606 4.973l-12.509.022-6.096-3.013c-18.71-9.247-28.459-33.256-32.741-80.64-1.522-16.841-2.146-24.684-4.155-52.275-1.435-19.715-4.624-39.48-7.964-49.376q-11.802-34.96-39.445-26.387m-18.357 28.287c-5.094 1.152-17.929 7.468-25.478 12.535-19.166 12.864-45.411 38.52-75.859 74.15-.66.775-1.01 1.408-.774 1.408.235 0 3.277-2.972 6.76-6.606 22.531-23.505 34.315-35.29 42.526-42.53 2.212-1.95 4.203-3.727 4.424-3.948s2.066-1.74 4.101-3.373c28.207-22.651 47.16-30.404 59.863-24.488 14.9 6.938 22.022 28.036 29.358 86.978 2.628 21.112 7.223 46.045 11.191 60.725a661 661 0 0 1 1.489 5.63c1.102 4.26 7.042 18.098 10.15 23.641 7.54 13.454 21.386 23.22 36.207 25.537 8.44 1.321 24.209.396 33.437-1.961 8.09-2.066 19.702-5.679 23.727-7.382 1.327-.56 5.111-2.031 8.41-3.268 3.298-1.236 6.917-2.73 8.043-3.316 1.125-.588 2.282-1.07 2.57-1.073s3.627-1.453 7.422-3.222c3.795-1.77 7.063-3.218 7.263-3.218s2.65-1.056 5.446-2.346 8.34-3.786 12.322-5.545c6.1-2.696 11.51-5.137 21.716-9.801 2.973-1.359 12.02-5.023 17.293-7.004 11.467-4.309 16.944-6.05 27.347-8.689 33.844-8.59 59.745-7.847 87.474 2.509 9.747 3.64 28.979 13.119 42.612 21.003 1.875 1.084 3.866 1.815 4.424 1.624.843-.288-7.25-5.878-23.516-16.242-42.013-26.768-77.302-30.244-128.69-12.674-10.516 3.595-30.45 11.524-39.41 15.675-5.635 2.61-18.504 8.48-27.748 12.657-28.058 12.678-50.082 20.479-65.955 23.363-8.459 1.538-21.506 1.326-27.651-.45-7.06-2.038-16.044-8.082-20.558-13.83-8.682-11.053-16.396-32.708-21.292-59.769l-1.673-9.25c-.4-2.211-1.311-8.545-2.024-14.075-4.985-38.657-8.277-57.132-12.614-70.78-8.35-26.273-22.417-37.105-42.333-32.595m-19.059 29.272c-9.714 2.783-24.707 11.852-37.787 22.858-10.021 8.433-32.937 31.821-46.281 47.234-20.06 23.17-21.57 26.058-3.048 5.823 19.046-20.806 35.533-36.992 48.97-48.073 5.315-4.383 16.398-11.892 22.88-15.502 20.161-11.227 34.87-9.742 44.523 4.494 4.376 6.454 6.784 11.458 10.111 21.018 2.897 8.324 8.81 31.483 11.308 44.294 5.445 27.919 12.817 57.255 16.878 67.16 7.004 17.083 10.053 22.794 16.11 30.174 7.005 8.535 15.679 14.263 26.964 17.805 5.173 1.623 7.641 1.884 17.675 1.864 12.88-.027 18.948-1.04 34.576-5.776 9.656-2.926 31.225-11.13 32.544-12.378.42-.398 1.193-.723 1.718-.723s4.416-1.628 8.648-3.62c4.231-1.99 7.866-3.618 8.076-3.618s3.032-1.225 6.272-2.72a408 408 0 0 1 11.118-4.91c2.875-1.204 6.685-2.847 8.468-3.653 8.704-3.933 26.279-10.683 35.453-13.617 21.844-6.983 34.34-9.125 53.4-9.156 28.51-.046 46.36 4.856 82.433 22.634 13.983 6.892 18.91 9.144 18.91 8.643 0-.335-12.615-8.482-13.134-8.482-.194 0-4.106-2.295-8.69-5.1-23.21-14.194-44.016-22.734-62.226-25.537-9.181-1.412-29.658-1.207-39.783.4-25.673 4.074-49.413 12.714-107.406 39.09-2.212 1.006-8.441 3.581-13.842 5.721-25.92 10.272-42.197 14.381-56.97 14.381-14.51 0-24.503-3.917-33.81-13.255-10.28-10.314-14.98-20.072-24.405-50.687-1.561-5.07-4.239-16.903-8.92-39.412-7.357-35.387-12.119-51.987-18.686-65.149-5.936-11.898-14.062-19.992-22.621-22.533-5.243-1.558-13.366-1.429-19.426.308m-12.05 28.287c-16.162 3.892-33.286 15.34-54.525 36.453-15.148 15.06-40.45 43.949-38.491 43.949.434 0 .91-.315 1.058-.7.265-.693 14.102-15.599 27.145-29.242 8.368-8.754 25.223-23.483 34.518-30.164 3.834-2.756 7.227-5.019 7.539-5.027.312-.01 2.302-1.033 4.423-2.276 11.774-6.898 23.97-9.079 32.572-5.824 8.486 3.212 15.847 11.856 22.67 26.623 3.816 8.26 10.5 28.674 16.974 51.838 8.011 28.667 11.077 38.066 17.448 53.486 12.01 29.069 28.124 44.73 50.81 49.377 16.29 3.338 36.155.113 64.862-10.527 9.593-3.556 18.636-7.143 23.325-9.253l6.994-3.146c1.855-.834 3.565-1.517 3.798-1.517.443 0 8.73-3.643 11.066-4.864.742-.388 5.809-2.544 11.26-4.79 5.452-2.247 10.637-4.423 11.521-4.835 7.318-3.406 29.337-10.798 39.412-13.23 14.998-3.62 23.202-4.56 39.813-4.564 20.4-.004 35.827 2.715 53.889 9.5 4.202 1.577 8.908 3.339 10.456 3.913s8.244 3.463 14.88 6.418c15.687 6.988 19.705 8.56 19.705 7.708 0-.384-.634-.911-1.407-1.17-.774-.261-1.95-.825-2.614-1.255-6.103-3.95-37.026-19.85-43.835-22.537a208 208 0 0 1-4.657-1.955c-8.074-3.497-21.395-7.18-31.114-8.6-4.087-.597-12.215-.807-21.955-.565-16.826.417-27.195 2.088-44.106 7.107-15.1 4.482-43.858 15.745-65.063 25.484-2.875 1.321-9.39 4.086-14.477 6.144-5.088 2.059-9.974 4.092-10.859 4.518-4.341 2.094-24.365 8.925-31.834 10.861-14.567 3.775-29.816 4.71-38.977 2.388-22.9-5.801-37.576-24.488-50.53-64.337-2.013-6.193-6.363-21.033-9.667-32.977-8.913-32.213-14.216-47.084-21.227-59.519-6.211-11.016-13.866-18.647-21.662-21.594-4.54-1.717-14.574-2.398-19.137-1.3m-14.478 29.317c-9.603 2.428-16.733 6.218-29.251 15.55-13.406 9.995-35.505 32.368-54.084 54.756-6.403 7.717-2.141 4.589 6.084-4.464 18.518-20.383 39.605-39.986 51.915-48.261 13.672-9.191 28.04-13.64 37.213-11.524 13.185 3.043 24.397 16.043 34.673 40.203 1.223 2.875 2.561 5.952 2.973 6.836.963 2.066 10.409 27.635 10.994 29.76.864 3.14 10.03 27.452 12.886 34.183 14.043 33.092 29.98 51.462 50.667 58.408 20.846 6.997 49.433 2.767 86.258-12.764 7.301-3.08 21.6-9.16 27.145-11.543 17.744-7.628 39.05-15.67 50.12-18.921 22.603-6.635 35.677-8.734 54.446-8.74 26.28-.01 43.3 3.962 81.092 18.922 9.325 3.69 18.012 6.931 19.304 7.2 3.178.664-29.823-15.954-41.9-21.1-35.557-15.146-64.439-17.733-99.723-8.933-15.422 3.846-33.942 10.044-49.465 16.553-17.516 7.344-23.85 10.012-25.335 10.673-5.482 2.436-13.211 5.635-13.617 5.635-.262 0-2.191.766-4.288 1.702-7.41 3.309-8.748 3.812-19.898 7.481-22.11 7.275-26.295 8.081-41.824 8.048-13.225-.029-17.57-.904-26.542-5.354-16.629-8.246-30.585-28.868-44.234-65.364-2.978-7.962-6.845-18.616-8.594-23.672-11.786-34.087-22.522-55.01-33.58-65.441-10.086-9.515-21.455-12.857-33.435-9.83m-10.054 29.123c-6.312 1.059-14.16 4.615-23.104 10.47-3.639 2.382-7.081 4.766-7.65 5.298-.568.533-3.562 3.134-6.654 5.783-11.606 9.94-39.848 40.11-39.777 42.492.016.523 6.078-5.247 13.472-12.822 19.459-19.935 32.207-30.68 45.011-37.935 10.141-5.746 14.051-6.903 23.528-6.957 7.733-.045 8.844.146 13.17 2.27 12.077 5.93 24.885 23.201 36.41 49.1 1.588 3.57 4.112 9.148 5.609 12.394s2.722 6.025 2.722 6.175c0 .276 1.408 3.398 10.514 23.297 5.931 12.96 14.397 28.084 20.269 36.209 6.317 8.74 16.961 18.902 24.312 23.212 19.434 11.394 44.418 12.12 75.605 2.198 11.507-3.66 45.383-16.548 57.106-21.725 6.868-3.032 9.104-3.954 10.858-4.474 1.106-.329 3.097-1.088 4.424-1.688 10.947-4.949 40.759-13.623 55.497-16.148 11.279-1.932 39.228-1.911 51.476.039 17.985 2.862 34.402 7.619 62.946 18.237 11.612 4.32 16.063 5.154 9.04 1.694-28.842-14.21-55.014-24.247-72.553-27.828-28.898-5.899-60.892-1.954-99.167 12.23-15.157 5.616-20.186 7.597-36.041 14.197-27.704 11.533-47.864 18.502-62.432 21.583-12.426 2.628-30.925 2.586-39.446-.09-15.427-4.844-26.062-13.783-38.424-32.296-4.273-6.399-15.695-28.087-19.061-36.194a322 322 0 0 0-3.324-7.64c-1-2.212-3.708-8.365-6.014-13.674-4.672-10.749-13.742-29.323-17.303-35.432-7.162-12.29-17.522-23.853-24.976-27.88-7.25-3.918-17.499-5.53-26.043-4.095m-10.054 29.535c-10.014 2.49-20.595 8.29-32.172 17.633-6.655 5.372-24.128 22.867-31.688 31.73-8.118 9.515-3.255 6.126 9.795-6.829 16.123-16.003 17.382-17.092 28.328-24.506 21.552-14.598 36.57-16.191 52.28-5.547 5.624 3.81 13.782 13.105 20.872 23.783 8.129 12.24 8.407 12.724 20.54 35.791 4.536 8.627 9.24 17.494 10.451 19.706l4.85 8.847c13.021 23.757 28.624 40.836 44.772 49.007 10.17 5.146 17.72 7.015 30.258 7.487 11.771.444 17.254-.15 31.934-3.467 10.6-2.394 33.112-9.981 51.074-17.215 12.798-5.153 20.478-8.134 26.944-10.46 3.76-1.353 7.56-2.788 8.445-3.19 8.07-3.664 37.14-11.632 49.868-13.668 10.252-1.64 28.422-2.36 39.371-1.56 21.523 1.574 38.017 5.362 73.403 16.86 8.058 2.618 14.916 4.76 15.242 4.76 2.808 0-7.035-4.384-31.901-14.207-29.872-11.8-44.036-15.279-65.638-16.118-26.566-1.034-49.806 3.633-87.986 17.67-10.43 3.835-22.387 8.48-25.487 9.9-6.309 2.89-36 13.583-44.551 16.044-16.012 4.609-22.288 5.558-36.935 5.586-14.852.029-19.21-.83-29.357-5.79-19.74-9.65-32.412-26.086-57.526-74.615-21.269-41.099-33.373-56.774-49.872-64.586-8.917-4.221-16.78-5.168-25.314-3.046m-6.613 29.838c-14.019 3.046-29.567 13.163-47.186 30.7-16.166 16.092-19.561 21.932-4.594 7.903 15.245-14.29 24.231-20.936 37.107-27.444 12.34-6.238 21.257-7.224 32.101-3.551 16.053 5.437 28.381 19.369 55.183 62.358 16.325 26.184 24.994 38.519 33.147 47.16 20.432 21.66 45.14 31.69 71.164 28.886 13.84-1.49 25.267-4.212 46.855-11.158 5.149-1.657 32.05-11.716 45.17-16.89 13.663-5.39 21.155-7.802 41.294-13.298 7.046-1.923 22.315-4.442 32.26-5.322 30.876-2.733 55.745 1.24 110.505 17.656 4.424 1.326 8.224 2.414 8.445 2.418 1.227.022-5.26-3.177-10.456-5.155a7171 7171 0 0 1-12.869-4.92c-40.442-15.51-66.779-20.818-93.496-18.847-27.409 2.023-48.48 7.895-103.158 28.746-25.118 9.579-41.319 14.37-57.599 17.03-19.514 3.19-32.88 1.39-48.201-6.488-16.883-8.681-30.998-24.295-50.658-56.036-12.306-19.866-24.205-37.84-30.191-45.605-12.526-16.247-24.916-25.415-38.13-28.216-6.414-1.36-10.172-1.344-16.693.073m487.19 3.61c0 .443.383.805.85.805.469 0 .63-.362.356-.804s-.657-.805-.852-.805c-.196 0-.355.362-.355.805" fill-rule="evenodd"/><path d="m805.47 536.409-3.728-1.73" fill-rule="nonzero"/><path d="M793.612 535.142c8.768 3.562 15.887 4.556 25.181 5.072" fill-rule="nonzero" stroke="#000" stroke-width="8" stroke-linecap="round" stroke-linejoin="round"/></g></svg>